<?xml version="1.0" encoding="utf-8"?><svg width="461" height="43" fill="none" xmlns="http://www.w3.org/2000/svg" viewBox="0 0 461 43"><g clip-path="url(#bclip0_0_108)"><path d="M19.844 22.766c-.565 3.566-2.068 6.587-3.983 8.598-1.918 2.015-4.16 2.94-6.286 2.603-2.125-.337-3.972-1.909-5.174-4.418-1.2-2.504-1.695-5.842-1.13-9.408.564-3.566 2.067-6.588 3.982-8.599 1.918-2.015 4.16-2.939 6.286-2.602 2.125.336 3.972 1.908 5.175 4.418 1.2 2.504 1.695 5.842 1.13 9.408z" stroke="#000" stroke-width="2.252"/><path fill-rule="evenodd" clip-rule="evenodd" d="M84.216 8.22L73.201 30.159V8.221H70.95v26.69h2.386L84.35 12.973v21.938h2.253V8.221h-2.386z" fill="#000"/><path d="M48.876 34.798V17.445m0 0v-8.21c5.687 0 17.23-.023 17.23 4.05 0 4.073-11.6 4.16-17.23 4.16zM24.326 34.799v-7.152m0 0L36.657 9.291h5.35v18.356m-17.681 0h17.68m0 7.152v-7.152" stroke="#000" stroke-width="2.252"/><path fill="#000" d="M90 32h3v3h-3z"/></g><path fill-rule="evenodd" clip-rule="evenodd" d="M123.535 18.313l6.304-10.092h2.656l-7.641 12.232 8.915 14.459h-2.646l-7.601-12.328-7.7 12.327h-2.656l9.037-14.466-7.537-12.224h2.646l6.223 10.092z" fill="#000"/><path d="M185.715 21.453V9.291h13.232m-13.232 12.162V33.73c5.011 0 13.232.619 13.232-5.856 0-6.476-8.277-6.42-13.232-6.42zM152.713 20.595c.377 3.59-.292 6.898-1.621 9.336-1.332 2.443-3.259 3.916-5.399 4.14-2.14.226-4.331-.814-6.141-2.927-1.807-2.108-3.15-5.205-3.527-8.795-.377-3.59.292-6.898 1.621-9.336 1.332-2.443 3.258-3.916 5.399-4.141 2.14-.225 4.33.815 6.141 2.928 1.807 2.108 3.15 5.204 3.527 8.795z" stroke="#000" stroke-width="2.252"/><path fill-rule="evenodd" clip-rule="evenodd" d="M157.451 8.22v26.69h2.253V14.455l7.64 20.457h2.406l7.749-20.52v20.52h2.252V8.22h-2.33l-8.869 23.486L159.78 8.22h-2.329zM210.547 8.221h-.873l-.218.846-4.69 18.244-.002.008-.002.008-1.807 7.472h2.317l1.471-6.081h11.623l1.35 6.08h2.307L216.32 9.104l-.196-.882h-5.577zm.873 2.252l-4.111 15.992h10.557l-3.549-15.992h-2.897z" fill="#000"/><path fill="#000" d="M225 32h3v3h-3z"/><path d="M249.334 17.464v16.32c10.023 0 17.23-3.152 17.23-8.558s-8.277-7.762-17.23-7.762zm0 0V9.252c5.687 0 17.23-.021 17.23 4.051 0 4.073-11.599 4.16-17.23 4.16z" stroke="#000" stroke-width="2.252"/><path fill-rule="evenodd" clip-rule="evenodd" d="M285.125 8.22L274.11 30.158V8.22h-2.253v26.69h2.387l11.015-21.937V34.91h2.252V8.22h-2.386zM346.726 8.22l-11.015 21.938V8.22h-2.252v26.69H335.845l11.015-21.937V34.91h2.253V8.22h-2.387zM297.153 8.22h11.418v26.691h-2.252V10.473h-6.954c-.023.677-.062 1.63-.131 2.77-.14 2.316-.404 5.417-.897 8.527-.491 3.093-1.22 6.273-2.323 8.709-1.06 2.34-2.702 4.488-5.237 4.488v-2.252c1.07 0 2.166-.915 3.185-3.166.977-2.157 1.67-5.1 2.15-8.131.478-3.014.736-6.036.874-8.312a104.599 104.599 0 00.15-3.508l.003-.2.001-.049v-.015l.013-1.113zM318.438 8.221H329.856v26.69h-2.252V10.473h-6.954c-.023.677-.062 1.63-.131 2.77-.14 2.317-.404 5.418-.897 8.528-.49 3.092-1.22 6.273-2.323 8.708-1.06 2.341-2.702 4.489-5.237 4.489v-2.253c1.07 0 2.166-.914 3.185-3.165.978-2.158 1.67-5.1 2.151-8.132.478-3.013.735-6.036.873-8.311a100.356 100.356 0 00.15-3.509l.003-.199.001-.05V9.336l.013-1.114z" fill="#000"/><path fill="#000" d="M352 32h3v3h-3z"/><path d="M443.711 34.798V9.347h11.036M377.828 17.464v16.32c10.023 0 17.231-3.152 17.231-8.558s-8.278-7.762-17.231-7.762zm0 0V9.252c5.687 0 17.231-.021 17.231 4.051 0 4.073-11.6 4.16-17.231 4.16zM417.125 20.595c.377 3.59-.292 6.898-1.621 9.336-1.332 2.443-3.259 3.916-5.399 4.14-2.14.226-4.33-.814-6.141-2.927-1.807-2.108-3.15-5.205-3.527-8.795-.377-3.59.292-6.898 1.621-9.336 1.332-2.443 3.259-3.916 5.399-4.141 2.14-.225 4.331.815 6.141 2.928 1.807 2.108 3.15 5.204 3.527 8.795z" stroke="#000" stroke-width="2.252"/><path fill-rule="evenodd" clip-rule="evenodd" d="M421.977 20.496V8.221h2.252V19.37h11.149V8.22h2.252v26.691h-2.252V21.622h-11.149v13.289h-2.252V20.496z" fill="#000"/><path fill="#000" d="M458 32h3v3h-3z"/><defs><clipPath id="bclip0_0_108"><path fill="#fff" d="M0 0h93v43H0z"/></clipPath></defs></svg>