<svg width="170" height="133" viewBox="0 0 170 133" fill="none" xmlns="http://www.w3.org/2000/svg"><path fill-rule="evenodd" clip-rule="evenodd" d="M108.837 91.117a249.303 249.303 0 004.03-2.446c3.305-2.03 7.476-4.593 11.417-6.739 2.908-1.583 5.637-2.91 7.747-3.61 1.062-.352 1.911-.526 2.523-.523.617.004.807.178.879.311.038.07.106.32-.371.945-.444.582-1.212 1.277-2.246 2.057-2.058 1.552-4.997 3.31-8.001 5.031-.956.548-1.919 1.093-2.859 1.624-1.994 1.128-3.886 2.197-5.391 3.12-1.105.676-2.039 1.296-2.665 1.818-.308.257-.585.526-.765.797-.159.24-.395.73-.089 1.22.2.319.53.409.711.439a2.4 2.4 0 00.634.005c.427-.043.977-.165 1.609-.339 1.274-.35 3.01-.947 5.041-1.695 3.004-1.108 6.699-2.567 10.571-4.096 1.366-.54 2.755-1.088 4.143-1.633 5.333-2.093 10.661-4.132 14.759-5.444 2.054-.657 3.768-1.12 5.008-1.321.625-.102 1.085-.128 1.39-.098.087.01.148.02.189.032a.372.372 0 01-.012.031c-.057.13-.195.326-.465.585-.534.514-1.423 1.123-2.598 1.796-2.337 1.337-5.634 2.831-9.01 4.24-3.371 1.406-6.795 2.717-9.376 3.69-.569.216-1.099.414-1.578.594l-.002.001c-.604.227-1.126.423-1.547.583-.377.143-.68.26-.889.346-.102.041-.194.08-.263.113-.031.015-.08.039-.127.068a.765.765 0 00-.27.286.71.71 0 00.645 1.04c.072 0 .13-.012.15-.016.052-.01.103-.025.14-.037.08-.024.185-.06.307-.103.247-.089.603-.222 1.049-.391.474-.18 1.059-.405 1.733-.664l.017-.007c.587-.225 1.24-.477 1.949-.747 3.068-1.174 7.183-2.726 11.401-4.198 4.222-1.472 8.53-2.858 11.988-3.701 1.731-.422 3.225-.703 4.376-.795.576-.046 1.043-.043 1.4.003.258.034.422.086.52.133-.058.07-.146.157-.272.26-.544.447-1.546.995-2.932 1.617-2.744 1.233-6.74 2.648-10.868 4.052-1.222.416-2.457.831-3.671 1.24h-.004c-2.867.964-5.625 1.891-7.86 2.707-1.589.58-2.941 1.114-3.893 1.573-.471.228-.877.453-1.171.672-.145.109-.295.24-.41.396a.992.992 0 00-.203.735c.044.297.22.51.412.64.174.119.367.175.525.206.319.061.715.058 1.133.027.851-.065 2.021-.27 3.377-.557 2.225-.469 5.046-1.176 7.978-1.912.654-.164 1.314-.33 1.974-.494 3.633-.906 7.272-1.783 10.089-2.266 1.413-.242 2.584-.38 3.431-.378.426 0 .73.036.927.09.039.011.069.021.093.03-.066.098-.213.25-.497.447-.616.427-1.636.9-2.984 1.403-2.68 1-6.446 2.037-10.315 3.024-1.799.46-3.628.91-5.372 1.34-1.977.486-3.843.946-5.428 1.36-1.497.391-2.779.75-3.702 1.065a9.289 9.289 0 00-1.149.459c-.147.074-.295.16-.42.261a1.011 1.011 0 00-.37.553.834.834 0 00.217.774c.163.168.362.238.485.272.257.071.577.083.888.076.649-.015 1.565-.122 2.626-.274 1.087-.157 2.396-.372 3.792-.601h.002a321.2 321.2 0 014.018-.643c2.835-.427 5.596-.762 7.576-.735 1.006.014 1.716.122 2.124.299.196.085.257.158.272.182v.001c.004.005.022.031.005.121a.512.512 0 01-.066.074 2.25 2.25 0 01-.442.309c-.434.247-1.079.516-1.928.8-1.692.567-4.081 1.157-6.951 1.752-5.735 1.189-13.302 2.38-20.854 3.44a959.79 959.79 0 01-20.702 2.651 1070.93 1070.93 0 01-8.704.988l-.5.053-.074.008c-7.793.581-14.918.579-20.718.172-6.008-.423-10.514-1.277-12.877-2.327-1.172-.521-3.337-1.916-6.035-3.731-.892-.6-1.838-1.243-2.816-1.907v-.001c-1.946-1.321-4.018-2.73-6.052-4.064-3.057-2.005-6.067-3.869-8.484-5.049-1.203-.587-2.3-1.026-3.205-1.216-.838-.176-1.82-.203-2.419.49-.639.738-.344 1.666.051 2.354.423.735 1.151 1.556 2.035 2.41 1.78 1.716 4.372 3.725 6.988 5.668 1.097.815 2.196 1.616 3.249 2.384a233.746 233.746 0 014.021 2.973c.418.319.8.618 1.142.894a118.568 118.568 0 01-4.08-2.174 778.196 778.196 0 01-7.511-4.226h-.001c-2.285-1.296-4.7-2.666-7.138-4.029-5.36-2.999-10.805-5.952-15.08-7.941-2.133-.993-4.005-1.76-5.442-2.168-.714-.204-1.363-.33-1.903-.337-.507-.006-1.123.094-1.5.585-.314.41-.373.888-.265 1.344.101.426.347.836.646 1.218.602.765 1.581 1.61 2.766 2.489 2.384 1.768 5.794 3.817 9.25 5.83.911.53 1.825 1.058 2.727 1.579 2.535 1.464 4.967 2.869 6.932 4.101 1.333.836 2.425 1.576 3.178 2.188.171.14.32.269.448.387-.825-.258-2.02-.767-3.493-1.463-2.358-1.114-5.34-2.662-8.493-4.298l-.003-.002c-.88-.456-1.771-.919-2.667-1.381-4.095-2.114-8.261-4.216-11.493-5.548-1.609-.663-3.031-1.154-4.115-1.35-.536-.097-1.055-.135-1.495-.045-.465.094-.933.358-1.126.908-.173.495-.045.984.162 1.387.209.404.541.809.939 1.205.799.796 1.988 1.681 3.406 2.607a72.238 72.238 0 003.696 2.233 30.941 30.941 0 00-.695-.209c-1.39-.4-2.636-.657-3.593-.661-.476-.002-.946.057-1.34.243-.425.2-.756.548-.872 1.049-.113.484.014.947.234 1.343.217.391.55.766.941 1.121.784.712 1.927 1.456 3.273 2.207 2.702 1.507 6.377 3.13 10.05 4.669 1.585.664 3.165 1.311 4.673 1.928a326.44 326.44 0 015.48 2.279 67.52 67.52 0 012.094.941c-.196-.06-.4-.123-.613-.191-1.357-.432-2.987-1.002-4.74-1.615-1.086-.379-2.22-.776-3.363-1.166-2.964-1.01-5.99-1.972-8.323-2.431-1.157-.227-2.21-.345-3.023-.253-.406.047-.814.152-1.15.375-.36.24-.607.598-.677 1.052-.078.507.129.968.395 1.335.271.373.665.738 1.133 1.092.938.711 2.3 1.474 3.956 2.256 3.323 1.569 7.962 3.276 13.118 4.854 10.3 3.152 22.799 5.83 31.168 5.83 11.954 0 26.51-.687 40.235-1.335 5.271-.248 10.419-.491 15.25-.687l-.058-1.414c-4.853.197-10.016.441-15.294.69h-.002c-13.714.647-28.213 1.331-40.131 1.331-8.156 0-20.495-2.628-30.751-5.767-5.121-1.567-9.69-3.252-12.927-4.78-1.624-.767-2.883-1.481-3.705-2.104-.413-.313-.686-.58-.841-.795-.146-.2-.143-.288-.143-.292v-.001c.006-.037.014-.056.062-.088.074-.049.232-.113.524-.146.585-.067 1.462.014 2.586.235 2.228.438 5.171 1.371 8.139 2.382 1.116.38 2.237.772 3.32 1.151 1.77.619 3.438 1.202 4.81 1.639 1.104.351 2.063.622 2.757.741.335.057.68.092.97.049.145-.022.352-.074.536-.221a.88.88 0 00.331-.694 1.04 1.04 0 00-.23-.629 2.18 2.18 0 00-.371-.366 7.47 7.47 0 00-1.049-.665c-.845-.462-2.034-1.008-3.428-1.611-1.597-.69-3.505-1.471-5.53-2.3h-.001a578.279 578.279 0 01-4.637-1.914c-3.673-1.538-7.282-3.134-9.906-4.599-1.318-.735-2.348-1.415-3.011-2.017-.332-.302-.542-.557-.655-.761-.11-.2-.103-.3-.094-.338l.001-.004c.005-.02.01-.046.095-.086.121-.057.35-.109.728-.107.754.003 1.845.213 3.205.605 2.7.779 6.24 2.206 9.783 3.767 3.535 1.557 7.044 3.233 9.68 4.497l.498.239c1.096.526 2.02.969 2.694 1.283.386.179.701.321.925.413.108.044.216.085.308.112.037.011.12.035.215.041a.719.719 0 00.773-.611.72.72 0 00-.129-.525.792.792 0 00-.124-.136 1.148 1.148 0 00-.15-.111 4.25 4.25 0 00-.312-.18 32.38 32.38 0 00-1.03-.518c-.782-.38-1.865-.892-3.15-1.5l-.45-.213c-2.974-1.405-6.92-3.277-10.826-5.255-3.91-1.981-7.756-4.058-10.535-5.87-1.393-.91-2.485-1.731-3.18-2.423-.349-.348-.567-.633-.68-.852a.766.766 0 01-.085-.244.6.6 0 01.07-.018c.178-.037.487-.034.958.05.929.169 2.236.611 3.827 1.267 3.167 1.305 7.28 3.378 11.382 5.496.885.457 1.77.916 2.644 1.37l.007.003c3.157 1.639 6.172 3.203 8.557 4.33 1.518.717 2.818 1.275 3.753 1.559.452.137.9.237 1.268.216a1.17 1.17 0 00.668-.231.953.953 0 00.363-.764c0-.443-.255-.831-.486-1.111-.255-.309-.606-.633-1.015-.967-.823-.669-1.976-1.447-3.32-2.289-1.99-1.248-4.455-2.672-6.998-4.141h-.001c-.896-.518-1.802-1.041-2.7-1.564-3.463-2.017-6.807-4.029-9.119-5.743-1.162-.863-2.016-1.616-2.495-2.227-.241-.307-.349-.53-.383-.672-.02-.084-.012-.12 0-.14.025-.012.12-.05.368-.047.354.004.862.092 1.53.282 1.326.377 3.115 1.105 5.23 2.09 4.223 1.965 9.626 4.894 14.987 7.892 2.417 1.353 4.83 2.721 7.117 4.018 2.769 1.57 5.353 3.036 7.539 4.242 1.998 1.103 3.687 2.002 4.9 2.576.602.284 1.115.502 1.502.622.184.058.393.11.589.115.125.004.66-.006.857-.529a.978.978 0 00-.001-.661 1.736 1.736 0 00-.226-.427 5.483 5.483 0 00-.71-.783c-.58-.551-1.426-1.233-2.42-1.993-1.166-.892-2.58-1.922-4.073-3.011-1.051-.767-2.142-1.562-3.215-2.359-2.617-1.944-5.14-3.904-6.848-5.55-.86-.83-1.47-1.539-1.79-2.097-.16-.278-.22-.473-.232-.593-.01-.095.01-.118.024-.133v-.001c.036-.041.254-.196 1.051-.029.732.154 1.704.532 2.874 1.103 2.33 1.137 5.276 2.958 8.328 4.96a438.806 438.806 0 016.018 4.042c.981.667 1.933 1.313 2.836 1.921 2.656 1.787 4.94 3.267 6.251 3.85 2.605 1.158 7.325 2.022 13.355 2.446 5.862.412 13.037.413 20.871-.168v.003l.003-.001h.008l.033-.004.032-.004.716-.054-.002-.023a1012.909 1012.909 0 008.602-.976 963.624 963.624 0 0020.733-2.655c7.559-1.061 15.164-2.258 20.945-3.456 2.887-.599 5.341-1.202 7.114-1.796.884-.296 1.627-.599 2.178-.912.276-.156.526-.328.726-.52.195-.188.387-.438.459-.756.096-.417.052-.838-.181-1.208-.22-.351-.56-.578-.909-.73-.681-.295-1.631-.401-2.67-.415-2.11-.03-4.977.324-7.808.751a299.86 299.86 0 00-4.063.649h-.001c-.986.162-1.922.316-2.782.449.328-.088.672-.18 1.031-.274 1.59-.415 3.43-.868 5.388-1.35h.001a684.26 684.26 0 005.404-1.347c3.867-.988 7.7-2.041 10.459-3.07 1.37-.51 2.528-1.034 3.297-1.566.379-.262.726-.57.935-.931.231-.4.294-.883.047-1.35-.226-.424-.65-.621-1.008-.72-.374-.105-.823-.143-1.306-.143-.971-.001-2.238.153-3.672.398-2.878.494-6.568 1.385-10.193 2.288l-1.988.498c-2.931.735-5.718 1.434-7.914 1.897a34.762 34.762 0 01-2.602.468c.878-.412 2.118-.901 3.615-1.448 2.216-.809 4.945-1.726 7.804-2.687 1.22-.41 2.463-.828 3.7-1.249 4.121-1.401 8.178-2.837 10.993-4.101 1.394-.626 2.549-1.238 3.251-1.814.337-.277.674-.627.803-1.053.072-.235.08-.495-.012-.753a1.348 1.348 0 00-.436-.59c-.363-.294-.842-.43-1.321-.492-.492-.065-1.067-.062-1.698-.011-1.262.101-2.84.401-4.6.83a92.936 92.936 0 00-5.172 1.447c1.157-.668 2.132-1.326 2.777-1.947.33-.317.616-.664.779-1.036.172-.392.222-.854-.011-1.297-.284-.544-.881-.696-1.324-.74-.488-.05-1.091 0-1.76.108-1.348.219-3.144.71-5.214 1.371-4.147 1.328-9.516 3.384-14.845 5.475-1.395.547-2.786 1.097-4.154 1.636l-.007.003c-3.867 1.527-7.538 2.977-10.526 4.079-2.025.746-3.714 1.325-4.925 1.658-.218.06-.417.11-.596.153.542-.422 1.319-.935 2.281-1.524 1.484-.91 3.338-1.958 5.318-3.077.946-.535 1.921-1.086 2.897-1.645 2.999-1.72 6.011-3.517 8.149-5.13 1.063-.801 1.956-1.59 2.52-2.329.533-.698.958-1.608.49-2.472-.433-.801-1.282-1.05-2.12-1.054-.844-.005-1.867.226-2.979.595-2.236.742-5.058 2.12-7.98 3.71-3.97 2.163-8.224 4.776-11.545 6.816-1.562.96-2.917 1.792-3.94 2.391-.475.279-.944.558-1.412.837-2.765 1.646-5.507 3.278-9.188 4.575-4.292 1.513-9.886 2.575-18.239 2.575v1.415c8.478 0 14.237-1.078 18.713-2.656 3.823-1.347 6.692-3.056 9.457-4.704.464-.276.926-.55 1.388-.822zm27.3 10.538c-.008-.002-.006-.003.001 0h-.001zm21.041-21.056l-.002-.001h.002zm-20.857 21.919c-.011.01-.014.011-.002.001l.002-.001zm-22.33-8.753c-.011-.001-.009-.002.001 0h-.001zm.308.55l-.004.009.004-.01zM3.171 96.746s.004-.001.008-.005l-.008.005zm29.33 23.092l-.002-.002c.004.005.005.006.001.002zm3.104-10.247l-.007.001.007-.001z" fill="#1D1D1D"/><path d="M22.854 31.169v-6.633m0 0l11.67-17.027h5.062v17.027m-16.732 0h16.732m0 6.633v-6.633m69.702-17.56v17.815m0 0v5.817c7.427 0 15.389.572 15.389-2.856 0-3.013-8.069-2.96-15.389-2.96zm19.823-17.815v24.193" stroke="#1D1D1D" stroke-width="2.003"/><path d="M140.59 3.459l2.683 2.11 3.005-1.713" stroke="#1D1D1D" stroke-width="2.003" stroke-linejoin="bevel"/><path d="M87.44 31.169v-16.06m0 0v-7.6c5.383 0 16.307-.02 16.307 3.749 0 3.77-10.978 3.85-16.307 3.85zm-19.237 3.893V7.492h12.522m-12.522 11.51V30.62c4.742 0 12.522.586 12.522-5.542s-7.833-6.075-12.522-6.075zm-6.57 1.22c-.515 3.251-1.919 6.004-3.722 7.835-1.805 1.832-3.942 2.685-5.997 2.36-2.054-.326-3.823-1.797-4.973-4.098-1.15-2.298-1.634-5.35-1.12-8.601.516-3.252 1.92-6.005 3.723-7.835 1.805-1.833 3.942-2.686 5.997-2.36 2.054.325 3.823 1.797 4.973 4.097 1.15 2.298 1.634 5.35 1.12 8.602z" stroke="#1D1D1D" stroke-width="2.003"/><path fill-rule="evenodd" clip-rule="evenodd" d="M148.603 6.976l-10.551 20.126V6.976h-2.003v24.193h2.133l10.55-20.126V31.17h2.003V6.976h-2.132z" fill="#1D1D1D"/><path d="M27.949 63.61V39.95h12.47v23.66m7.354 0V47.55m0 0v-7.6c5.382 0 16.306-.02 16.306 3.75 0 3.768-10.977 3.85-16.306 3.85zm82.889-7.4h7.439m7.492 0h-7.492m0 0v23.49M83.934 50.677c.343 3.26-.302 6.27-1.57 8.495-1.27 2.228-3.114 3.602-5.184 3.82-2.07.217-4.16-.743-5.865-2.658-1.703-1.914-2.96-4.724-3.302-7.984-.343-3.26.302-6.27 1.57-8.496 1.27-2.227 3.114-3.601 5.184-3.819 2.07-.217 4.16.743 5.865 2.658 1.703 1.914 2.96 4.724 3.302 7.984zm20.144-10.709H90.695V57.27m13.383 5.732H90.695V57.27m0 0h13.383" stroke="#1D1D1D" stroke-width="2.003"/><path fill-rule="evenodd" clip-rule="evenodd" d="M123.912 39.416l-9.815 16.402h-2.869V39.433h-2.003v24.176h2.003v-5.788h3.128l8.493 5.772h3.563l-10.403-7.07 10.237-17.107h-2.334z" fill="#1D1D1D"/></svg>